# xmcd
#
# Track frame offsets: 
#        150
#        17360
#        36850
#        60462
#        77937
#        98662
#        120982
#        138985
#        158947
#        179125
#        199292
#        220365
#        240777
#        261700
#        279980
#
# Disc length: 4006 seconds
#
# Revision: 3
# Processed by: cddbd v1.5.1PL2 Copyright (c) Steve Scherf et al.
# Submitted via: ExactAudioCopy v0.95a5
#
DISCID=d10fa40f
DTITLE=Roxette - The Ballad Hits
DYEAR=2002
DGENRE=
TTITLE0=A Thing About You
TTITLE1=It Must Have Been Love
TTITLE2=Listen To Your Heart
TTITLE3=Fading Like a Flower
TTITLE4=Spending My Time
TTITLE5=Queen Of Rain
TTITLE6=Almost Unreal
TTITLE7=Crash! Boom! Bang!
TTITLE8=Vulnerable
TTITLE9=You Don't Understand Me
TTITLE10=Wish I Could Fly
TTITLE11=Anyone
TTITLE12=Salvation
TTITLE13=Milk and Toast and Honey
TTITLE14=Breathe
EXTD=YEAR: 2002
EXTT0=
EXTT1=
EXTT2=
EXTT3=
EXTT4=
EXTT5=
EXTT6=
EXTT7=
EXTT8=
EXTT9=
EXTT10=
EXTT11=
EXTT12=
EXTT13=
EXTT14=
PLAYORDER=
